<svg xmlns="http://www.w3.org/2000/svg" width="24" height="24" viewBox="0 0 24 24">
  <g id="Group_458" data-name="Group 458" transform="translate(-405.721 -5124.721)">
    <rect id="Rectangle_124" data-name="Rectangle 124" width="24" height="24" transform="translate(405.721 5124.721)" fill="#00741b" opacity="0"/>
    <g id="noun-tick-1348374" transform="translate(407.079 5127.347)">
      <path id="Path_42" data-name="Path 42" d="M235.719,84.218a1.105,1.105,0,0,0-1.68,1.437l3.444,4.018.84-.719-.841.721a1.108,1.108,0,0,0,1.562.12,1.069,1.069,0,0,0,.085-.081l11.541-10.742a1.106,1.106,0,1,0-1.506-1.619L238.411,87.361l-2.693-3.142Z" transform="translate(-229.739 -76.558)" fill="#00741b"/>
      <path id="Path_43" data-name="Path 43" d="M152.854,65.855a9.338,9.338,0,0,1,6.263,2.4l-1.554,1.584a7.158,7.158,0,1,0,2.447,5.389,7.224,7.224,0,0,0-.082-1.091l1.833-1.834a9.375,9.375,0,1,1-8.908-6.449Z" transform="translate(-143.48 -65.855)" fill="#00741b"/>
    </g>
  </g>
</svg>
