<svg xmlns="http://www.w3.org/2000/svg" width="64" height="64" viewBox="0 0 64 64">
  <g id="Group_463" data-name="Group 463" transform="translate(-1028 -1027)">
    <rect id="Rectangle_24" data-name="Rectangle 24" width="64" height="64" transform="translate(1028 1027)" fill="#fff" opacity="0"/>
    <g id="noun-customer-service-4636210" transform="translate(915.255 1032.399)">
      <path id="Path_14" data-name="Path 14" d="M144.745,0A21.566,21.566,0,0,0,123.2,21.547q0,4.421,0,8.845a5.12,5.12,0,1,0,10.241,0V22.81a5.139,5.139,0,0,0-5.12-5.12,5.067,5.067,0,0,0-2.153.479,18.884,18.884,0,0,1,37.16,0,5.069,5.069,0,0,0-2.155-.48,5.139,5.139,0,0,0-5.12,5.12v7.581a5.139,5.139,0,0,0,5.12,5.12,5.071,5.071,0,0,0,2.122-.465,16.2,16.2,0,0,1-14.967,12.879,3.855,3.855,0,1,0,.068,2.66,18.907,18.907,0,0,0,17.9-18.856V21.546A21.567,21.567,0,0,0,144.745,0Z" transform="translate(0)" fill="#fff" fill-rule="evenodd"/>
      <path id="Path_15" data-name="Path 15" d="M231.522,399.129a1.33,1.33,0,0,0-1.182,2.383,22.969,22.969,0,0,0,21.405,0,1.33,1.33,0,0,0-1.195-2.376,20,20,0,0,1-19.028,0Z" transform="translate(-96.295 -361.085)" fill="#fff" fill-rule="evenodd"/>
    </g>
  </g>
</svg>
