<svg xmlns="http://www.w3.org/2000/svg" xmlns:xlink="http://www.w3.org/1999/xlink" width="54" height="54" viewBox="0 0 54 54">
  <defs>
    <filter id="Ellipse_37" x="0" y="0" width="54" height="54" filterUnits="userSpaceOnUse">
      <feOffset dy="2" input="SourceAlpha"/>
      <feGaussianBlur stdDeviation="3" result="blur"/>
      <feFlood flood-opacity="0.059"/>
      <feComposite operator="in" in2="blur"/>
      <feComposite in="SourceGraphic"/>
    </filter>
  </defs>
  <g id="Group_491" data-name="Group 491" transform="translate(4674 22031)">
    <g transform="matrix(1, 0, 0, 1, -4674, -22031)" filter="url(#Ellipse_37)">
      <circle id="Ellipse_37-2" data-name="Ellipse 37" cx="18" cy="18" r="18" transform="translate(9 7)" fill="#fff"/>
    </g>
    <g id="noun-favourite-1299325" transform="translate(-4736.758 -22065.574)">
      <path id="Path_48" data-name="Path 48" d="M93.855,53.2c-.546,0-2.167,0-4.1,2.476-.692-.91-2.112-2.476-4.1-2.476A4.468,4.468,0,0,0,81.2,57.66a4.519,4.519,0,0,0,.328,1.693c.4.983,2.622,3.187,5.463,5.954,1.093,1.056,2.021,1.985,2.495,2.513a.387.387,0,0,0,.273.128.327.327,0,0,0,.273-.128c.473-.528,1.42-1.457,2.495-2.513,2.84-2.768,5.044-4.971,5.463-5.972A4.458,4.458,0,0,0,93.855,53.2Zm3.46,5.863c-.382.929-3.223,3.7-5.28,5.717-.929.892-1.73,1.693-2.258,2.258-.528-.564-1.347-1.347-2.258-2.258-2.076-2.021-4.916-4.789-5.28-5.717a3.093,3.093,0,0,1-.31-1.4,3.738,3.738,0,0,1,3.733-3.733c1.748,0,3,1.475,3.806,2.586a.38.38,0,0,0,.291.146.354.354,0,0,0,.291-.146c.783-1.111,2.039-2.586,3.806-2.586a3.738,3.738,0,0,1,3.733,3.733,3.632,3.632,0,0,1-.273,1.4Z"/>
    </g>
  </g>
</svg>
