<svg xmlns="http://www.w3.org/2000/svg" width="64" height="64" viewBox="0 0 64 64">
  <g id="Group_462" data-name="Group 462" transform="translate(-159 -1487)">
    <rect id="Rectangle_22" data-name="Rectangle 22" width="64" height="64" transform="translate(159 1487)" fill="#fff" opacity="0"/>
    <g id="noun-leader-4044040" transform="translate(40.143 1477.38)">
      <path id="Path_20" data-name="Path 20" d="M189.305,28.631a5.565,5.565,0,1,0-5.565-5.565A5.572,5.572,0,0,0,189.305,28.631Z" transform="translate(-47.715)" fill="#fff"/>
      <path id="Path_21" data-name="Path 21" d="M171.008,174.991a17.475,17.475,0,0,0-22.7-16.693,5.836,5.836,0,0,0-2.93-.8H137.8a5.563,5.563,0,0,0-5.6,4.671l-.919,8.742a2.281,2.281,0,0,0,1.511,2.445l2.388.891.564,11.519a3.951,3.951,0,0,0,4.012,3.534h3.673l.043,0a17.212,17.212,0,0,0,6.713,2.865h0a17.537,17.537,0,0,0,3.332.317,16.936,16.936,0,0,0,3.327-.324h.014a17.333,17.333,0,0,0,9.835-5.661l0-.006a17.453,17.453,0,0,0,4.311-11.5Zm-19.876,15.724v-2.208a2.385,2.385,0,0,1,4.77,0v2.2a16.025,16.025,0,0,1-4.77,0Zm2.385-6.184a3.98,3.98,0,0,0-3.975,3.975v1.886a15.581,15.581,0,0,1-4.017-1.654c.056-.033.107-.072.161-.106s.088-.056.13-.086a4,4,0,0,0,.464-.377c.018-.018.034-.038.053-.056a3.851,3.851,0,0,0,.349-.4c.032-.042.063-.083.093-.126a3.8,3.8,0,0,0,.307-.511c.006-.013.011-.028.017-.042a3.7,3.7,0,0,0,.2-.526c.015-.05.029-.1.042-.152a3.64,3.64,0,0,0,.1-.609l.563-11.5,2.388-.891a2.422,2.422,0,0,0,.958-.65l.015-.014a2.287,2.287,0,0,0,.184-.247c.013-.02.031-.037.043-.057a2.257,2.257,0,0,0,.163-.316l.01-.018c.026-.063.041-.129.061-.194a2.141,2.141,0,0,0,.1-.538,2.109,2.109,0,0,0-.019-.383l-.925-8.793a4.978,4.978,0,0,0-.135-.642c-.017-.065-.039-.127-.059-.191q-.071-.226-.163-.444c-.027-.064-.053-.127-.082-.189a5.209,5.209,0,0,0-.272-.508c-.014-.023-.025-.047-.039-.07a5.329,5.329,0,0,0-.389-.532c-.013-.015-.022-.033-.035-.048a15.894,15.894,0,0,1,16.422,25,3.972,3.972,0,0,0-7.148,2.39v2.964a15.826,15.826,0,0,1-1.59.505v-1.879a3.98,3.98,0,0,0-3.975-3.975Zm11.1,1.82c-.121.119-.238.243-.362.358q-.5.462-1.041.876c-.047.036-.09.078-.138.114-.406.307-.829.591-1.263.856-.136.083-.278.155-.416.234q-.358.2-.728.39v-2.262a2.385,2.385,0,0,1,4.488-1.124c-.177.191-.356.378-.541.559Z" transform="translate(0 -127.279)" fill="#fff"/>
      <path id="Path_22" data-name="Path 22" d="M344.42,367.5a3.18,3.18,0,1,0,3.18,3.18A3.184,3.184,0,0,0,344.42,367.5Zm0,4.77a1.59,1.59,0,1,1,1.59-1.59A1.592,1.592,0,0,1,344.42,372.27Z" transform="translate(-190.904 -318.198)" fill="#fff"/>
      <path id="Path_23" data-name="Path 23" d="M449.42,356.36a3.18,3.18,0,1,0-3.18-3.18A3.184,3.184,0,0,0,449.42,356.36Zm0-4.77a1.59,1.59,0,1,1-1.59,1.59A1.592,1.592,0,0,1,449.42,351.59Z" transform="translate(-286.363 -302.288)" fill="#fff"/>
    </g>
  </g>
</svg>
