<svg xmlns="http://www.w3.org/2000/svg" width="64" height="64" viewBox="0 0 64 64">
  <g id="Group_453" data-name="Group 453" transform="translate(-186 -946)">
    <rect id="Rectangle_21" data-name="Rectangle 21" width="64" height="64" transform="translate(186 946)" fill="#00741b" opacity="0"/>
    <g id="noun-global-partners-3147024" transform="translate(62.788 932.873)">
      <path id="Path_4" data-name="Path 4" d="M173.784,32.965c0-.052-.052-.105-.052-.158a20.755,20.755,0,0,0-3.625-5.569l-.158-.158a20.668,20.668,0,0,0-7.093-4.886c-.052,0-.105-.052-.158-.052h-.052A20.327,20.327,0,0,0,145.1,23.4a.185.185,0,0,0-.105.052.051.051,0,0,0-.052.052,20.5,20.5,0,0,0-8.3,9.352v.052a20.571,20.571,0,0,0-1.681,8.038.788.788,0,0,0,1.576,0,18.5,18.5,0,0,1,1.156-6.41c.105.105.21.158.263.263a27.247,27.247,0,0,1,4.1,4.2,1.79,1.79,0,0,0,1.313.893h.105c.683-.052.945-.683,1.208-1.208.263-.578.526-1,.893-1.1a1.6,1.6,0,0,1,.841-.052c1.156.052,1.313-.473,2-2.574l.105-.315a5.6,5.6,0,0,1,2.207-2.574c.788-.63,1.576-1.208,1.471-2.049s-.945-1.366-1.786-1.734c-2.732-1.261-3.625.158-4.1.945-.105.158-.21.368-.263.42a.85.85,0,0,1-.263-.105,3.514,3.514,0,0,1-.788-.473c0-.052.052-.263.052-.368a4.559,4.559,0,0,0,.105-1.786,2.317,2.317,0,0,1,.63-2.049,18.483,18.483,0,0,1,8.406-2.522c-.315,1.786-.473,4.1.736,4.781a1.453,1.453,0,0,0,.683.158,3.849,3.849,0,0,0,2.364-1.471c2.207-2.364,3.888-2.207,4.15-2.154a18.185,18.185,0,0,1,6.3,4.2,6.72,6.72,0,0,1-2.627,1.1c-1.576.42-3.415.945-3.468,2.679a1.824,1.824,0,0,0,.526,1.313c1.1,1.156,3.888,1.1,6.83,1.1,1.051,0,2,0,2.837.052a19.182,19.182,0,0,1,1.366,6.935.788.788,0,1,0,1.576,0,20.965,20.965,0,0,0-1.681-8.091Zm-30.261-5.989a3.219,3.219,0,0,1-.105,1.313c-.21,1.1-.052,1.786,1.576,2.574a1.739,1.739,0,0,0,2.522-.945c.42-.683.63-1.051,2.1-.368a3.231,3.231,0,0,1,.841.473c-.158.158-.526.42-.788.63a6.873,6.873,0,0,0-2.732,3.362l-.105.315c-.21.63-.368,1.156-.473,1.471a6.094,6.094,0,0,0-1.208.105,3.181,3.181,0,0,0-2,1.944,29.735,29.735,0,0,0-4.255-4.413c-.21-.21-.473-.42-.683-.63a18.494,18.494,0,0,1,5.254-6.62,3.753,3.753,0,0,0,.053.788Zm13.292-2.364a4.04,4.04,0,0,1-1.156.945,7,7,0,0,1,.105-3.362,19.555,19.555,0,0,1,3.52.473,9.443,9.443,0,0,0-2.469,1.944Zm12.819,7.723c-2.154,0-5.044.052-5.674-.63-.052-.052-.052-.052-.052-.158,0-.526.945-.841,2.312-1.208a8.218,8.218,0,0,0,3.31-1.471,18.316,18.316,0,0,1,2.259,3.415c-.736.052-1.419.052-2.154.052Z" transform="translate(0 0)" fill="#00741b"/>
      <path id="Path_5" data-name="Path 5" d="M255.037,229.112a.759.759,0,0,0-.368-1.051,4.181,4.181,0,0,0-3.31-.526,2.974,2.974,0,0,0-1.629,1.576.836.836,0,0,0,.368,1.051.668.668,0,0,0,.315.052.792.792,0,0,0,.736-.473,1.192,1.192,0,0,1,.683-.735,3.016,3.016,0,0,1,2.049.42.878.878,0,0,0,1.156-.315Z" transform="translate(-103.949 -187.268)" fill="#00741b"/>
      <path id="Path_6" data-name="Path 6" d="M385.551,185.285a2.5,2.5,0,0,1-1.891-1.261,2.309,2.309,0,0,1,.105-2.259,6.831,6.831,0,0,0,.735-1.891,3.481,3.481,0,0,1,.21-.578,7.566,7.566,0,0,1,2.417.841,25.729,25.729,0,0,0,3.152,1.156c.841.263,1.051.315,1.261.63a.788.788,0,1,0,1.261-.946,3.472,3.472,0,0,0-2.049-1.156,23.269,23.269,0,0,1-2.995-1.1c-2.154-.945-3.047-1.156-3.783-.841a2.149,2.149,0,0,0-1,1.576,4.7,4.7,0,0,1-.63,1.576,3.764,3.764,0,0,0-.158,3.783,4.049,4.049,0,0,0,3.1,2.1h.052a.8.8,0,0,0,.788-.736A.662.662,0,0,0,385.551,185.285Z" transform="translate(-223.64 -142.285)" fill="#00741b"/>
      <path id="Path_7" data-name="Path 7" d="M174.128,254.5a3.625,3.625,0,1,0-3.625,3.625A3.632,3.632,0,0,0,174.128,254.5Zm-5.674,0a2.051,2.051,0,0,1,2.049-2.049,2.049,2.049,0,0,1,0,4.1A2.052,2.052,0,0,1,168.454,254.5Z" transform="translate(-28.925 -208.563)" fill="#00741b"/>
      <path id="Path_8" data-name="Path 8" d="M155.569,333.674l-4.886-.473h-.315l-4.833.473a.7.7,0,0,0-.526.315.655.655,0,0,0-.158.63l1.313,7.986a.8.8,0,0,0,.788.683h.84l.578,8.668a.8.8,0,0,0,.788.736H152a.8.8,0,0,0,.788-.735l.578-8.668h.841a.789.789,0,0,0,.788-.683l1.313-7.986a.815.815,0,0,0-.735-.946Zm-2.049,7.986h-.945a.8.8,0,0,0-.788.735l-.578,8.668h-1.314l-.578-8.669a.8.8,0,0,0-.788-.735h-.945l-1.1-6.515,3.835-.368h.263l3.993.42Z" transform="translate(-8.947 -283.161)" fill="#00741b"/>
      <path id="Path_9" data-name="Path 9" d="M455.84,254.5a3.625,3.625,0,1,0,3.625-3.625A3.632,3.632,0,0,0,455.84,254.5Zm5.674,0a2.051,2.051,0,0,1-2.049,2.049,2.049,2.049,0,1,1,2.049-2.049Z" transform="translate(-290.777 -208.563)" fill="#00741b"/>
      <path id="Path_10" data-name="Path 10" d="M444.529,333.674l-4.886-.473h-.315l-4.833.473a.7.7,0,0,0-.526.315.655.655,0,0,0-.158.63l1.313,7.986a.8.8,0,0,0,.788.683h.893l.578,8.668a.8.8,0,0,0,.788.736h2.837a.8.8,0,0,0,.788-.736l.578-8.668h.841A.789.789,0,0,0,444,342.6l1.313-7.986a.727.727,0,0,0-.158-.63A.907.907,0,0,0,444.529,333.674Zm-2.049,7.986h-.945a.8.8,0,0,0-.788.735l-.578,8.668H438.8l-.526-8.668a.8.8,0,0,0-.788-.735h-.945l-1.1-6.515,3.835-.368h.263l3.993.42Z" transform="translate(-270.798 -283.161)" fill="#00741b"/>
      <path id="Path_11" data-name="Path 11" d="M318.608,254.5a3.625,3.625,0,1,0-3.625,3.625A3.632,3.632,0,0,0,318.608,254.5Z" transform="translate(-159.85 -208.563)" fill="#00741b"/>
      <path id="Path_12" data-name="Path 12" d="M300.049,333.674l-4.886-.473h-.315l-4.833.473a.7.7,0,0,0-.526.315.655.655,0,0,0-.158.63l1.313,7.986a.8.8,0,0,0,.788.683h.893l.578,8.668a.8.8,0,0,0,.788.736h2.837a.8.8,0,0,0,.788-.736l.578-8.668h.788a.789.789,0,0,0,.788-.683l1.313-7.986a.814.814,0,0,0-.735-.945Z" transform="translate(-139.872 -283.161)" fill="#00741b"/>
    </g>
  </g>
</svg>
