<svg xmlns="http://www.w3.org/2000/svg" width="64" height="64" viewBox="0 0 64 64">
  <g id="Group_452" data-name="Group 452" transform="translate(-574 -1114)">
    <rect id="Rectangle_23" data-name="Rectangle 23" width="64" height="64" transform="translate(574 1114)" fill="#00741b" opacity="0"/>
    <g id="I1Yo7e.tif" transform="translate(-833.984 69.964) rotate(10)">
      <g id="Group_10" data-name="Group 10" transform="translate(1585 791.87)">
        <path id="Path_13" data-name="Path 13" d="M1625.793,810.268c-.013.017,0,.051,0,.076l.437.109-1.106,1.592.4.178-1.632,1.705.728.244a4.846,4.846,0,0,1-2.1,1.5l.908.3c.016.055.031.11.048.164l-1.874,1.19.7.292a5.45,5.45,0,0,1-2.38,1.193l.869.328a2.674,2.674,0,0,1-2.256.92c.219.192.377.333.666.589l-1.971.733.522.288a3.389,3.389,0,0,1-2.167.861c.28.494.278.506-.23.673-.286.094-.58.161-.861.266a1.985,1.985,0,0,0-.377.248l.064.089,1.2-.422c-.012.236-.02.367-.028.531a1.793,1.793,0,0,1,1.5-.49l-.215.452,1.571-.429.059.125c-.055.13-.109.259-.157.374l1.529-.178c-.154.279-.235.425-.3.548l1.654-.156-.236.549c1.366.038,1.458.066,1.493.444.844.077,1.08.2,1.062.508l2.811.7c0,.066-.008.133-.012.2l-2.809.577c-.016.308-.2.391-1.134.491.031.526-.39.31-.621.35a5.328,5.328,0,0,1-.885.012l.264.562-1.638-.188c.07.162.131.306.243.569l-1.519-.269.2.559-1.642-.513c.057.149.109.289.177.466a1.88,1.88,0,0,1-1.484-.568v.541l-1.265-.512.076.331-.082.117-1.279-.554-.474.313.978.388-.339.23.993.486-.284.213.819.549-.326.2.867.649-.3.162a5.1,5.1,0,0,1,.615.786c.2.387.282.835.481,1.222.243.474.553.912.835,1.366h-.09c-.664-.251-1.16-.81-1.931-.908a5.864,5.864,0,0,1-1.49-.638l-.139.241-.717-.8c-.041.112-.077.21-.141.385l-.635-.771-.188.29-.581-.95-.215.367-.46-.922-.241.139c-.123-.245-.236-.471-.347-.7a.442.442,0,0,1-.4-.157c-.112-.171-.175-.549-.243-.545-.428.024-.34-.346-.476-.537-.021-.03-.04-.079-.058-.112l-.011-.017-.005-.006-.006-.005a.02.02,0,0,0-.011,0c-.427.016-.317-.339-.394-.561-.043-.121-.092-.355-.108-.355-.385.067-.293-.266-.364-.438a6.887,6.887,0,0,1-.21-.688q-.1-.337-.2-.672l-.195.023c0,1.391-.025,2.783.008,4.175.026,1.048.127,2.1.195,3.143.021.321-.1.449-.436.3.118-2.461-.653-4.9-.11-7.365-.345.53-.234,1.22-.736,1.7-.193.184-.065.573-.467.786-.329.175-.48.686-.712,1.047-.115.179-.152.514-.471.266-.243.188-.09.78-.62.616l-.484.879-.2-.332c-.2.31-.39.6-.6.924l-.166-.281-.651.743-.142-.351-.7.779-.189-.281a4.144,4.144,0,0,1-.779.5c-.346.125-.755.087-1.084.236a15.465,15.465,0,0,0-1.465.859h-.18c.282-.441.562-.885.849-1.324.073-.113.232-.206.242-.318a2.451,2.451,0,0,1,.85-1.641c.019-.017.021-.052.032-.079l-.3-.183.886-.643-.369-.176.843-.567-.287-.215.99-.487-.313-.247.947-.378-.527-.344a2.094,2.094,0,0,1-1.342.505c.036-.158.061-.263.08-.348l-1.266.487v-.526a1.822,1.822,0,0,1-1.48.561c.091-.2.157-.339.223-.481l-1.567.489c-.018-.045-.036-.09-.055-.135l.15-.379-1.561.254c.161-.3.241-.449.307-.571l-1.654.2c.115-.261.173-.392.229-.517-.506-.149-1.141.2-1.594-.431-.333-.066-.819.006-1.147-.494l-2.677-.553-.005-.2,2.657-.654a1.218,1.218,0,0,1,1.03-.514c.554-.579,1.14-.4,1.657-.493l-.207-.54,1.639.169c-.082-.153-.163-.3-.309-.575l1.557.218-.179-.389.057-.131,1.581.438-.2-.434c.5-.125.613-.089,1.474.44v-.5l1.188.417c.018-.034.035-.068.052-.1a2.164,2.164,0,0,0-.37-.238c-.223-.087-.46-.138-.69-.207-.622-.187-.622-.188-.477-.76a3.1,3.1,0,0,1-2.1-.852l.574-.3a4.3,4.3,0,0,1-1.927-.807l.541-.485c-1.326-.1-1.924-.361-2.165-.948l.8-.311a5.408,5.408,0,0,1-2.387-1.176l.858-.358a4.011,4.011,0,0,1-2.043-1.289l.981-.309a5.058,5.058,0,0,1-2.135-1.508l.747-.23-1.618-1.687.374-.206c-.363-.534-.707-1.042-1.093-1.609l.406-.079-2.48-3.579v-.18q1.746.926,3.491,1.853c.145.077.274.18.452.3.024-.127.044-.228.091-.466l1.711.927.124-.43,1.884,1.447c.042-.2.092-.428.156-.722a4.506,4.506,0,0,1,1.71,1.913c.072-.339.135-.627.213-1a3.946,3.946,0,0,1,1.491,1.9l.272-.889a5.123,5.123,0,0,1,1.414,2.264c.1-.345.168-.6.254-.912a2.653,2.653,0,0,1,1.133,2.149l.447-.609a4.8,4.8,0,0,1,.993,1.849l.225-.6a3.191,3.191,0,0,1,1.087,2.045l.428-.26.377.469.11-.069c-.236-.509-.476-1.016-.706-1.527-.251-.561-.226-.6.385-.72-.237-.427-.492-.843-.7-1.282a3.778,3.778,0,0,1-.25-.86,1.05,1.05,0,0,1,.07-.375c.123.029.248.053.369.089.081.024.155.066.317.136a5.747,5.747,0,0,1-.855-2.379l.895.152a3.188,3.188,0,0,1-.973-2.728l1,.548a6.406,6.406,0,0,1-.9-3.066l1.019.47a4.651,4.651,0,0,1-.493-2.806l1.057.627a5.534,5.534,0,0,1-.369-3.039l.765.421c.085-.853.17-1.7.26-2.542a.642.642,0,0,1,.086-.177l.436.216a4.426,4.426,0,0,1,.571-2.216l.36.293a21.383,21.383,0,0,1,1.243-5.118,21.476,21.476,0,0,1,1.239,5.12l.357-.287a4.112,4.112,0,0,1,.565,2.2l.556-.241c.076.954.15,1.852.224,2.773l.781-.458a5.592,5.592,0,0,1-.377,3.071l1.057-.65a4.406,4.406,0,0,1-.523,2.845l1.062-.514a6.546,6.546,0,0,1-.908,3.076l.927-.5c.347.588.167,1.142-.855,2.654.137-.016.25-.022.359-.042.519-.1.605-.025.425.493-.2.588-.473,1.155-.713,1.73.01,0,.039.024.06.019.191-.05.38-.1.57-.157a1.856,1.856,0,0,1-.007.644c-.25.634-.55,1.25-.826,1.861.575.137.582.152.3.78-.221.485-.447.969-.735,1.59.391-.179.569-.808.968-.2a3.484,3.484,0,0,1,1.076-2.113l.233.54c.294-.592.593-1.193.937-1.887l.514.714a2.706,2.706,0,0,1,1.144-2.16c.08.313.145.565.236.917a5.657,5.657,0,0,1,1.408-2.271c.1.312.184.566.29.891a3.961,3.961,0,0,1,1.5-1.895c.069.356.123.644.193,1.011a5.088,5.088,0,0,1,1.7-1.952c.067.308.118.545.165.765l1.859-1.438c.079.208.126.336.158.418l1.678-.927c.054.217.081.324.083.334l3.974-2.034v.18Q1627.048,808.515,1625.793,810.268Z" transform="translate(-1585 -791.87)" fill="#00741b"/>
      </g>
    </g>
    <g id="I1Yo7e.tif-2" data-name="I1Yo7e.tif" transform="translate(-1164.701 827.8) rotate(-17)">
      <g id="Group_10-2" data-name="Group 10" transform="translate(1585 791.87)">
        <path id="Path_13-2" data-name="Path 13" d="M1600.424,798.826c0,.006,0,.019,0,.029l.165.041-.418.6.152.068-.617.645.275.092a1.833,1.833,0,0,1-.793.566l.343.115.018.062-.708.45.263.11a2.061,2.061,0,0,1-.9.451l.329.124a1.011,1.011,0,0,1-.853.348l.252.223-.745.277.2.109a1.282,1.282,0,0,1-.819.325c.106.187.105.191-.087.255-.108.035-.219.061-.325.1a.746.746,0,0,0-.143.094l.024.034.455-.16c0,.089-.007.139-.01.2a.678.678,0,0,1,.567-.185l-.081.171.594-.162.022.047-.059.141.578-.067-.115.207.625-.059-.089.207c.517.014.551.025.565.168.319.029.408.074.4.192l1.063.264c0,.025,0,.05,0,.075l-1.062.218c-.006.117-.074.148-.429.186.012.2-.147.117-.235.132a2.017,2.017,0,0,1-.335,0l.1.213-.619-.071.092.215-.574-.1.074.211-.621-.194.067.176a.711.711,0,0,1-.561-.215v.2l-.478-.193.029.125-.031.044-.484-.21-.179.118.37.147-.128.087.375.184-.107.081.31.208-.123.076.328.245-.114.061a1.916,1.916,0,0,1,.233.3c.075.146.107.316.182.462.092.179.209.345.316.517h-.034c-.251-.095-.439-.306-.73-.343a2.215,2.215,0,0,1-.563-.241l-.052.091-.271-.3-.053.146-.24-.292-.071.11-.22-.359-.081.139-.174-.349-.091.053-.131-.263a.167.167,0,0,1-.153-.059c-.042-.065-.066-.207-.092-.206-.162.009-.129-.131-.18-.2-.008-.011-.015-.03-.022-.042l0-.006,0,0,0,0,0,0c-.161.006-.12-.128-.149-.212-.016-.046-.035-.134-.041-.134-.146.025-.111-.1-.138-.166a2.589,2.589,0,0,1-.079-.26l-.077-.254-.074.009c0,.526-.01,1.052,0,1.578.01.4.048.792.073,1.188.008.121-.036.17-.165.114a16.134,16.134,0,0,1-.042-2.785c-.13.2-.088.461-.278.642-.073.07-.025.217-.177.3-.124.066-.181.259-.269.4-.043.068-.057.194-.178.1-.092.071-.034.3-.234.233l-.183.332-.074-.126-.227.349-.063-.106-.246.281-.054-.133-.265.294-.071-.106a1.564,1.564,0,0,1-.294.189c-.131.047-.286.033-.41.089a5.863,5.863,0,0,0-.554.325h-.068c.107-.167.212-.335.321-.5.028-.043.088-.078.092-.12a.927.927,0,0,1,.321-.62c.007-.006.008-.02.012-.03l-.113-.069.335-.243-.139-.067.319-.215-.109-.081.374-.184-.119-.094.358-.143-.2-.13a.792.792,0,0,1-.507.191l.03-.132-.479.184v-.2a.689.689,0,0,1-.56.212l.084-.182-.593.185-.021-.051.057-.143-.59.1.116-.216-.625.077.087-.2c-.191-.056-.432.077-.6-.163-.126-.025-.31,0-.434-.187l-1.012-.209,0-.077,1-.247a.461.461,0,0,1,.389-.194c.209-.219.431-.151.627-.186l-.078-.2.62.064-.117-.217.589.083-.068-.147.021-.049.6.166-.077-.164c.189-.047.232-.034.557.167v-.19l.449.158.02-.039a.8.8,0,0,0-.14-.09c-.084-.033-.174-.052-.261-.078-.235-.071-.235-.071-.18-.287a1.174,1.174,0,0,1-.793-.322l.217-.115a1.626,1.626,0,0,1-.729-.305l.2-.184c-.5-.036-.727-.136-.819-.359l.3-.118a2.045,2.045,0,0,1-.9-.445l.324-.135a1.517,1.517,0,0,1-.773-.487l.371-.117a1.912,1.912,0,0,1-.807-.57l.282-.087-.612-.638.141-.078-.413-.608.154-.03L1585,797.5v-.068q.66.35,1.32.7c.055.029.1.068.171.114l.035-.176.647.351.047-.163.712.547c.016-.076.035-.162.059-.273a1.7,1.7,0,0,1,.647.723c.027-.128.051-.237.08-.377a1.493,1.493,0,0,1,.564.719l.1-.336a1.935,1.935,0,0,1,.535.856c.037-.13.063-.227.1-.345a1,1,0,0,1,.428.813l.169-.23a1.815,1.815,0,0,1,.375.7l.085-.225a1.207,1.207,0,0,1,.411.773l.162-.1.143.177.042-.026c-.089-.192-.18-.384-.267-.578-.1-.212-.086-.228.146-.272-.089-.161-.186-.319-.264-.485a1.431,1.431,0,0,1-.094-.325.4.4,0,0,1,.027-.142c.046.011.094.02.139.034.031.009.059.025.12.052a2.172,2.172,0,0,1-.323-.9l.338.058a1.205,1.205,0,0,1-.368-1.031l.38.207a2.422,2.422,0,0,1-.341-1.159l.385.178a1.76,1.76,0,0,1-.186-1.061l.4.237a2.091,2.091,0,0,1-.139-1.149l.289.159c.032-.322.064-.642.1-.961a.245.245,0,0,1,.032-.067l.165.082a1.674,1.674,0,0,1,.216-.838l.136.111a1.025,1.025,0,1,1,.938,0l.135-.109a1.555,1.555,0,0,1,.214.83l.21-.091c.029.361.057.7.085,1.048l.3-.173a2.117,2.117,0,0,1-.143,1.161l.4-.246a1.666,1.666,0,0,1-.2,1.076l.4-.194a2.473,2.473,0,0,1-.344,1.163l.351-.189c.131.222.063.432-.323,1,.052-.006.094-.008.136-.016.2-.037.229-.01.161.186-.077.222-.179.437-.27.654,0,0,.015.009.023.007.072-.019.144-.04.216-.059a.7.7,0,0,1,0,.244c-.094.24-.208.472-.312.7.217.052.22.057.112.295-.084.183-.169.366-.278.6.148-.068.215-.306.366-.076a1.317,1.317,0,0,1,.407-.8l.088.2.354-.714.194.27a1.023,1.023,0,0,1,.433-.817l.089.347a2.139,2.139,0,0,1,.532-.859l.11.337a1.5,1.5,0,0,1,.567-.716l.073.382a1.924,1.924,0,0,1,.644-.738l.062.289.7-.544.06.158.635-.35c.021.082.031.122.031.126l1.5-.769v.068Z" transform="translate(-1585 -791.87)" fill="#00741b"/>
      </g>
    </g>
    <g id="I1Yo7e.tif-3" data-name="I1Yo7e.tif" transform="translate(-479.57 -258.818) rotate(25)">
      <g id="Group_10-3" data-name="Group 10" transform="translate(1585 791.87)">
        <path id="Path_13-3" data-name="Path 13" d="M1595.194,796.468s0,.013,0,.019l.109.027-.277.4.1.045-.408.426.182.061a1.211,1.211,0,0,1-.524.374l.227.076.012.041-.468.3.174.073a1.363,1.363,0,0,1-.595.3l.217.082a.668.668,0,0,1-.564.23l.166.147-.493.183.131.072a.848.848,0,0,1-.542.215c.07.124.07.127-.057.168-.071.023-.145.04-.215.066a.5.5,0,0,0-.094.062l.016.022.3-.105c0,.059,0,.092-.007.133a.448.448,0,0,1,.375-.122l-.054.113.393-.107.015.031-.039.093.382-.044-.076.137.413-.039-.059.137c.341.009.364.016.373.111.211.019.27.049.265.127l.7.175c0,.016,0,.033,0,.05l-.7.144c0,.077-.049.1-.283.123.008.132-.1.078-.155.088a1.332,1.332,0,0,1-.221,0l.066.14-.409-.047.061.142-.38-.067.049.14-.41-.128.044.117a.47.47,0,0,1-.371-.142v.135l-.316-.128.019.083-.02.029-.32-.138-.118.078.244.1-.085.057.248.121-.071.053.2.137-.081.05.217.162-.075.041a1.26,1.26,0,0,1,.154.2c.05.1.071.208.12.305.061.118.138.228.209.341h-.023c-.166-.063-.29-.2-.483-.227a1.464,1.464,0,0,1-.372-.159l-.035.06-.179-.2-.035.1-.159-.193-.047.073-.145-.237-.054.092-.115-.23-.06.035-.087-.174a.111.111,0,0,1-.1-.039c-.028-.043-.044-.137-.061-.136-.107.006-.085-.086-.119-.134-.005-.007-.01-.02-.015-.028l0,0v0h0c-.107,0-.079-.085-.1-.14-.011-.03-.023-.089-.027-.089-.1.017-.073-.066-.091-.11a1.717,1.717,0,0,1-.052-.172l-.051-.168-.049.006c0,.348-.006.7,0,1.043.006.262.032.524.049.785.005.08-.024.112-.109.075a10.652,10.652,0,0,1-.027-1.84c-.086.132-.058.3-.184.425-.048.046-.016.143-.117.2-.082.044-.12.171-.178.262-.029.045-.038.129-.118.067-.061.047-.022.2-.155.154l-.121.22-.049-.083-.15.231-.042-.07-.163.186-.035-.088-.175.195-.047-.07a1.04,1.04,0,0,1-.195.125c-.086.031-.189.022-.271.059a3.868,3.868,0,0,0-.366.215h-.045c.071-.11.14-.221.212-.331.018-.028.058-.051.061-.079a.612.612,0,0,1,.212-.41s.005-.013.008-.02l-.074-.046.221-.161-.092-.044.211-.142-.072-.054.247-.122-.078-.062.237-.094-.132-.086a.524.524,0,0,1-.335.126l.02-.087-.316.122v-.131a.455.455,0,0,1-.37.14l.056-.12-.392.122-.014-.034.037-.095-.39.064.077-.143-.413.051.057-.129c-.126-.037-.285.051-.4-.108-.083-.016-.2,0-.287-.124l-.669-.138v-.051l.664-.163a.3.3,0,0,1,.257-.128c.138-.145.285-.1.414-.123l-.052-.135.41.042-.077-.144.389.055-.045-.1.014-.033.4.11-.051-.108c.125-.031.153-.022.368.11v-.126l.3.1.013-.026a.528.528,0,0,0-.092-.059c-.056-.022-.115-.035-.172-.052-.155-.047-.155-.047-.119-.19a.776.776,0,0,1-.524-.213l.143-.076a1.075,1.075,0,0,1-.482-.2l.135-.121c-.332-.024-.481-.09-.541-.237l.2-.078a1.351,1.351,0,0,1-.6-.294l.214-.089a1,1,0,0,1-.511-.322l.245-.077a1.263,1.263,0,0,1-.533-.377l.187-.057-.4-.422.093-.051-.273-.4.1-.02-.62-.894v-.045l.872.463a1.348,1.348,0,0,1,.113.075l.023-.117.428.232.031-.107.471.362.039-.18a1.126,1.126,0,0,1,.427.478l.053-.249a.986.986,0,0,1,.373.475l.068-.222a1.278,1.278,0,0,1,.353.566l.063-.228a.663.663,0,0,1,.283.537l.112-.152a1.2,1.2,0,0,1,.248.462l.056-.149a.8.8,0,0,1,.272.511l.107-.065.094.117.028-.017c-.059-.127-.119-.254-.176-.382s-.057-.151.1-.18c-.059-.107-.123-.211-.175-.32a.947.947,0,0,1-.062-.215.265.265,0,0,1,.018-.094c.031.007.062.013.092.022s.039.016.079.034a1.435,1.435,0,0,1-.214-.595l.224.038a.8.8,0,0,1-.243-.682l.251.137a1.6,1.6,0,0,1-.226-.766l.254.117a1.163,1.163,0,0,1-.123-.7l.264.157a1.381,1.381,0,0,1-.092-.759l.191.105c.021-.213.042-.424.065-.635a.163.163,0,0,1,.021-.044l.109.054a1.107,1.107,0,0,1,.143-.554l.09.073a.677.677,0,1,1,.62,0l.089-.072a1.028,1.028,0,0,1,.141.549l.139-.06c.019.238.037.463.056.693l.2-.115a1.4,1.4,0,0,1-.094.767l.264-.162a1.1,1.1,0,0,1-.131.711l.265-.129a1.635,1.635,0,0,1-.227.769l.232-.125c.087.147.042.285-.214.663.034,0,.062-.005.09-.011.13-.024.151-.006.106.123-.051.147-.118.289-.178.432,0,0,.01.006.015,0l.143-.039a.463.463,0,0,1,0,.161c-.062.159-.137.312-.206.465.144.034.146.038.074.195-.055.121-.112.242-.184.4.1-.045.142-.2.242-.05a.87.87,0,0,1,.269-.528l.058.135.234-.472.129.178a.676.676,0,0,1,.286-.54l.059.229a1.414,1.414,0,0,1,.352-.568l.073.223a.99.99,0,0,1,.375-.473l.048.253a1.271,1.271,0,0,1,.426-.488l.041.191.464-.359.04.1.419-.232.021.083.993-.508v.045Z" transform="translate(-1585 -791.87)" fill="#00741b"/>
      </g>
    </g>
  </g>
</svg>
