<svg xmlns="http://www.w3.org/2000/svg" width="64" height="64" viewBox="0 0 64 64">
  <g id="Group_454" data-name="Group 454" transform="translate(-488 -1114)">
    <rect id="Rectangle_22" data-name="Rectangle 22" width="64" height="64" transform="translate(488 1114)" fill="#00741b" opacity="0"/>
    <path id="noun-package-4741381" d="M181.262,67.2H138.388a1.19,1.19,0,0,0-1.191,1.191v42.873a1.19,1.19,0,0,0,1.191,1.191h42.873a1.19,1.19,0,0,0,1.191-1.191V68.387a1.19,1.19,0,0,0-1.191-1.191ZM180.07,110.07H139.579V69.578H153.87v14.2a.467.467,0,0,0,.82.312c5.442-6.144,4.838-6.124,10.27,0h0a.467.467,0,0,0,.82-.313v-14.2H180.07ZM168.054,89.289c-.04-.38,8.416,2.244,8.62,2.225a1.19,1.19,0,0,1,.87,1.147,13.736,13.736,0,0,1-6.427,13.609c-.433.142-2.265,1.507-2.742,1.4-.454.089-2.333-1.225-2.742-1.4h0a13.737,13.737,0,0,1-6.427-13.61,1.19,1.19,0,0,1,.87-1.147Z" transform="translate(360.176 1056.176)" fill="#00741b"/>
  </g>
</svg>
